# xmcd
#
# Track frame offsets:
#	150
#	11070
#	24760
#	40135
#	51430
#	65195
#	80590
#	93695
#	107645
#	120435
#	132130
#	144695
#	155985
#	168875
#	181710
#	192715
#	204970
#	216805
#	228805
#	239275
#	250780
#
# Disc length: 3510 seconds
#
# Revision: 0
# Processed by: cddbd v1.5.1PL0 Copyright (c) Steve Scherf et al.
# Submitted via: audiograbber 1.83.01
#
DISCID=240db415
DTITLE=Conway Twitty - Play Guitar Play
DYEAR=1900
DGENRE=Country
TTITLE0=I Can't Believe She Gives It All To Me
TTITLE1=Memphis
TTITLE2=One In A Million
TTITLE3=I Can't Help It If She Can't Stop Loving Me
TTITLE4=Goodtime Charlie Got The Blues
TTITLE5=Play Guitar Play
TTITLE6=The Letter
TTITLE7=Some Kind Of Wonderful
TTITLE8=A Song For Ruby
TTITLE9=Wolverton Mountain
TTITLE10=I Wonder What She'll Think Of Me
TTITLE11=Wine Me Up
TTITLE12=I'de Rather Love You
TTITLE13=My Heart Won't Listen To My Mind
TTITLE14=I Fall To Pieces
TTITLE15=Heartache Just Walked
TTITLE16=Joy To The World
TTITLE17=Who'll Turn Out The Lights
TTITLE18=A Letter And A Ring
TTITLE19=One More Time
TTITLE20=My Love For You Is Stronger
EXTD=
EXTT0=
EXTT1=
EXTT2=
EXTT3=
EXTT4=
EXTT5=
EXTT6=
EXTT7=
EXTT8=
EXTT9=
EXTT10=
EXTT11=
EXTT12=
EXTT13=
EXTT14=
EXTT15=
EXTT16=
EXTT17=
EXTT18=
EXTT19=
EXTT20=
PLAYORDER=
